<svg width="40" height="40" viewBox="0 0 40 40" fill="none" xmlns="http://www.w3.org/2000/svg">
<path d="M40 20C40 31.0457 31.0457 40 20 40C8.9543 40 0 31.0457 0 20C0 8.9543 8.9543 0 20 0C31.0457 0 40 8.9543 40 20ZM1.15484 20C1.15484 30.4079 9.5921 38.8452 20 38.8452C30.4079 38.8452 38.8452 30.4079 38.8452 20C38.8452 9.5921 30.4079 1.15484 20 1.15484C9.5921 1.15484 1.15484 9.5921 1.15484 20Z" fill="#242C28"/>
<path d="M39.4238 20C39.742 20 40.0009 19.7419 39.9917 19.4238C39.8672 15.1008 38.344 10.9286 35.6427 7.53788C32.8217 3.99677 28.8825 1.51762 24.4696 0.505822C20.0566 -0.505972 15.4309 0.0094697 11.3489 1.96786C7.26687 3.92625 3.97011 7.2117 1.9977 11.2869C0.0252933 15.3622 -0.506045 19.9861 0.490574 24.4025C1.48719 28.819 3.95279 32.7666 7.48419 35.5998C11.0156 38.4331 15.4038 39.9843 19.9313 39.9999C24.2664 40.0148 28.4835 38.6209 31.9512 36.0365C32.2064 35.8463 32.2482 35.4832 32.0508 35.2336C31.8533 34.984 31.4914 34.9425 31.2359 35.1323C27.9731 37.555 24.0094 38.8614 19.9352 38.8474C15.6686 38.8328 11.5333 37.3709 8.20538 34.7009C4.87747 32.0309 2.55394 28.3108 1.61475 24.1488C0.675561 19.9869 1.17628 15.6294 3.03504 11.789C4.89379 7.94859 8.00058 4.85246 11.8474 3.00691C15.6942 1.16137 20.0533 0.67563 24.212 1.62912C28.3707 2.58261 32.0828 4.91891 34.7414 8.25598C37.2801 11.4426 38.7146 15.3617 38.8387 19.4238C38.8485 19.7419 39.1055 20 39.4238 20Z" fill="#00DF82"/>
<path d="M20.5479 25H20.999L23.0625 21.7002L24 22.2002L21.6309 25.9902V26H18.3818V25.9932L18.374 25.998L16 22.2002L16.9385 21.7002L19.001 25H19.4648V14H20.5479V25Z" fill="#D9D9D9"/>
</svg>
