<svg width="24" height="32" viewBox="0 0 24 32" fill="none" xmlns="http://www.w3.org/2000/svg">
<path fill-rule="evenodd" clip-rule="evenodd" d="M0.413261 4.61699C0.753929 3.20818 2.02789 1.94474 3.55218 1.10348C4.46961 0.596265 5.48844 0.234384 6.44708 0.0812936C7.46907 -0.0810841 8.44673 -0.00839879 9.21205 0.37357C9.84585 0.69059 10.3244 1.2009 10.5605 1.93547C10.5652 1.94939 10.5684 1.96176 10.5715 1.97568L12.2131 6.80829C12.2337 6.8686 12.2464 6.93046 12.2496 6.99077H12.2511C12.4017 9.18364 10.7332 10.4903 9.06784 11.7957C8.8777 11.9457 8.68756 12.0941 8.49265 12.2519C9.07733 13.8787 9.7571 15.388 10.5605 16.8279C11.3622 18.2661 12.2907 19.6425 13.3745 21.0081C13.6059 20.937 13.8435 20.8597 14.0797 20.7839C16.1047 20.1298 18.136 19.4725 19.9423 20.7885C20.0089 20.8365 20.0643 20.8937 20.1103 20.9555L23.3728 24.9235L23.3744 24.922C23.8782 25.5143 24.0573 26.1808 23.9844 26.872C23.8973 27.7056 23.4298 28.5469 22.7326 29.2984C22.0798 30.002 21.2147 30.6392 20.283 31.1139C18.7302 31.9057 16.9508 32.266 15.5565 31.7789C10.7635 30.1103 6.38999 25.7277 3.51404 20.5705C0.63817 15.416 -0.754358 9.45119 0.413261 4.61699ZM4.30322 2.39629C3.11325 3.05355 2.13242 3.98139 1.89793 4.95563C0.817274 9.4264 2.14036 15.0045 4.84827 19.8632C7.55779 24.7235 11.6345 28.8372 16.0681 30.3804C17.0363 30.7175 18.3688 30.419 19.5778 29.802C20.3574 29.4046 21.072 28.8788 21.6044 28.3051C22.0924 27.7793 22.4172 27.2272 22.4695 26.7277C22.5012 26.4262 22.422 26.1339 22.1986 25.8725L22.2002 25.871L22.1938 25.8632L18.963 21.9322C17.7984 21.1497 16.1774 21.6739 14.5599 22.1966C14.1479 22.3296 13.7359 22.4626 13.3097 22.5832V22.5817C13.0229 22.6606 12.7028 22.5709 12.5048 22.3296C11.234 20.7739 10.1549 19.1997 9.22799 17.5374C8.31215 15.8935 7.55 14.1708 6.90508 12.301C6.77991 12.0118 6.85121 11.6669 7.10632 11.4504C7.40421 11.1968 7.76073 10.9169 8.11724 10.6386C9.44662 9.59626 10.7792 8.55243 10.738 7.17145L9.13133 2.44256C9.12182 2.42091 9.1139 2.4008 9.10756 2.37761C9.00298 2.0544 8.79541 1.83017 8.52129 1.69407C8.06337 1.4652 7.41213 1.43117 6.69277 1.54716C5.90686 1.67242 5.06695 1.97412 4.30322 2.39629Z" fill="#AACBC4"/>
</svg>
