<svg width="22" height="18" viewBox="0 0 22 18" fill="none" xmlns="http://www.w3.org/2000/svg">
<path d="M0.824219 2.78515C0.824219 3.43525 1.14652 4.04355 1.68442 4.40765L8.26352 8.86595C9.75402 9.87575 11.7098 9.87575 13.2003 8.86595L19.7629 4.41755C20.3019 4.05455 20.6242 3.44625 20.6242 2.79615V2.78515C20.6242 1.70275 19.7464 0.824951 18.664 0.824951H2.78442C1.70202 0.824951 0.824219 1.70275 0.824219 2.78515Z" stroke="#00DF82" stroke-width="1.65" stroke-linecap="round" stroke-linejoin="round"/>
<path d="M0.824219 3.0249V14.0249C0.824219 15.2404 1.80872 16.2249 3.02422 16.2249H18.4242C19.6397 16.2249 20.6242 15.2404 20.6242 14.0249V3.0249" stroke="#00DF82" stroke-width="1.65" stroke-linecap="round" stroke-linejoin="round"/>
<path d="M1.46875 15.5802L8.22275 8.82617" stroke="#00DF82" stroke-width="1.65" stroke-linecap="round" stroke-linejoin="round"/>
<path d="M13.2344 8.83398L19.9774 15.577" stroke="#00DF82" stroke-width="1.65" stroke-linecap="round" stroke-linejoin="round"/>
</svg>
